<?xml version="1.0" standalone="no"?>
<!DOCTYPE svg PUBLIC "-//W3C//DTD SVG 20010904//EN"
 "http://www.w3.org/TR/2001/REC-SVG-20010904/DTD/svg10.dtd">
<svg version="1.0" xmlns="http://www.w3.org/2000/svg"
 width="300.000000pt" height="300.000000pt" viewBox="0 0 300.000000 300.000000"
 preserveAspectRatio="xMidYMid meet">
<metadata>
Created by potrace 1.14, written by Peter Selinger 2001-2017
</metadata>
<g transform="translate(0.000000,300.000000) scale(0.100000,-0.100000)"
fill="#000000" stroke="none">
<path d="M1329 2986 c-2 -2 -31 -7 -64 -11 -135 -14 -359 -94 -503 -178 l-61
-36 -28 33 c-41 47 -92 82 -145 100 -40 13 -54 13 -97 2 -61 -16 -115 -55
-136 -99 -24 -52 -22 -162 8 -313 l14 -70 -59 -90 c-111 -167 -198 -376 -224
-539 -3 -22 -10 -60 -14 -85 -8 -43 -6 -393 3 -435 2 -11 7 -38 11 -60 9 -50
33 -134 58 -205 24 -69 100 -234 111 -238 4 -2 7 -8 7 -13 0 -13 72 -120 124
-184 111 -138 308 -303 458 -383 115 -62 292 -129 388 -147 14 -3 36 -7 50
-10 135 -29 436 -24 590 10 125 28 351 112 400 150 8 6 35 23 61 38 173 99
390 316 503 504 69 116 150 307 170 405 3 13 8 34 10 48 3 14 8 36 11 50 24
115 24 421 0 540 -27 134 -82 296 -138 407 -85 167 -272 391 -422 505 -159
120 -321 202 -510 257 -134 39 -163 43 -381 47 -104 3 -192 2 -195 0z"/>
</g>
</svg>
